<svg xmlns="http://www.w3.org/2000/svg" xmlns:xlink="http://www.w3.org/1999/xlink" viewBox="0 0 34.53 34.82"><defs><style>.cls-1{fill:none;}.cls-2{fill:#fff;}.cls-3{clip-path:url(#clip-path);}.cls-4{fill:#e6e6e6;}</style><clipPath id="clip-path"><circle class="cls-1" cx="17.27" cy="17.27" r="17.27"/></clipPath></defs><title>img-defecto-vector</title><g id="Capa_2" data-name="Capa 2"><g id="Capa_1-2" data-name="Capa 1"><circle class="cls-2" cx="17.27" cy="17.27" r="17.27"/><g class="cls-3"><path class="cls-2" d="M13,23.78a23.38,23.38,0,0,1-2.52,0c-.48-.05-.66.05-.79.49-.95,3.12-1.92,6.22-2.89,9.33-.08.27-.16.54-.29,1,1.12-.1,2.12-.13,3.09-.29a42.67,42.67,0,0,0,7.65-2.39c4.24-1.59,8.41-3.4,13.16-3.42a7.15,7.15,0,0,0-.51-1.31q-1.74-2.7-3.56-5.35a.72.72,0,0,0-.64-.11c-1.2.35-2.37.78-3.57,1.12s-2.3.54-3.45.81a1.09,1.09,0,0,1,.52-.29,26.38,26.38,0,0,0,6-2.65,1.18,1.18,0,0,0,.64-.92c.1-.93.27-1.85.42-2.77.08-.54.16-1.08.26-1.67l-.85.16c-.13-.84-.27-1.67-.41-2.52l4.09-.49.07-.17c-1.19-.78-2.37-1.56-3.58-2.32a.87.87,0,0,0-.51,0l-4.6.66-1.3.17-1.23.12A46.77,46.77,0,0,0,25.4,8.81L23.54,3.28a62.34,62.34,0,0,1-12.36.17c-.72,2.64-1.42,5.2-2.1,7.77a1.46,1.46,0,0,1-.73.92c-1.27.77-2.49,1.6-3.73,2.41l.09.27,5.07-.27c.31,1.18-.48,2.08-.79,3.16,4,.15,7.88-.57,11.78-1-4.31,1-8.63,1.92-13.26,1.75a3.83,3.83,0,0,0,.42,1.13,10.54,10.54,0,0,0,1.6,1.67C10.63,22.1,11.8,22.89,13,23.78Z"/><path d="M13,23.78c-1.21-.89-2.38-1.68-3.48-2.56a10.54,10.54,0,0,1-1.6-1.67,3.83,3.83,0,0,1-.42-1.13c4.63.17,9-.78,13.26-1.75-3.9.47-7.78,1.19-11.78,1,.31-1.08,1.1-2,.79-3.16l-5.07.27-.09-.27c1.24-.81,2.46-1.64,3.73-2.41a1.46,1.46,0,0,0,.73-.92c.68-2.57,1.38-5.13,2.1-7.77a62.34,62.34,0,0,0,12.36-.17L25.4,8.81a46.77,46.77,0,0,1-7.16,2.08l1.23-.12,1.3-.17,4.6-.66a.87.87,0,0,1,.51,0c1.21.76,2.39,1.54,3.58,2.32l-.07.17-4.09.49c.14.85.28,1.68.41,2.52l.85-.16c-.1.59-.18,1.13-.26,1.67-.15.92-.32,1.84-.42,2.77a1.18,1.18,0,0,1-.64.92,26.38,26.38,0,0,1-6,2.65,1.09,1.09,0,0,0-.52.29c1.15-.27,2.31-.49,3.45-.81s2.37-.77,3.57-1.12a.72.72,0,0,1,.64.11q1.81,2.65,3.56,5.35a7.15,7.15,0,0,1,.51,1.31c-.28,4-5.72,4.51-10,6.1-2.51.94-8.21-.75-10.86-.29-1,.16-2,.19-3.09.29.13-.42.21-.69.29-1,1-3.11,1.94-6.21,2.89-9.33.13-.44.31-.54.79-.49A23.38,23.38,0,0,0,13,23.78Z"/><path class="cls-4" d="M14.58,14.47a1.64,1.64,0,0,1-1.31.72,2.65,2.65,0,0,1-1.55-.6s.65-.29,1.55-.59A1.19,1.19,0,0,1,14.58,14.47Z"/><path d="M13.45,14.83a.54.54,0,1,1-.54-.53A.54.54,0,0,1,13.45,14.83Z"/></g></g></g></svg>